<svg width="26" height="22" viewBox="0 0 26 22" fill="none" xmlns="http://www.w3.org/2000/svg">
<path d="M23.6364 0H2.36364C1.73676 0 1.13556 0.244142 0.692293 0.678718C0.249025 1.11329 0 1.70271 0 2.31729V10.4278C0 11.0424 0.249025 11.6318 0.692293 12.0664C1.13556 12.5009 1.73676 12.7451 2.36364 12.7451H23.6364C24.2632 12.7451 24.8644 12.5009 25.3077 12.0664C25.751 11.6318 26 11.0424 26 10.4278V2.31729C26 1.70271 25.751 1.11329 25.3077 0.678718C24.8644 0.244142 24.2632 0 23.6364 0ZM23.6364 10.4278H2.36364V2.31729H23.6364V10.4278ZM4.72727 8.11051C4.72727 7.80322 4.85179 7.50851 5.07342 7.29122C5.29505 7.07394 5.59565 6.95186 5.90909 6.95186H20.0909C20.4043 6.95186 20.7049 7.07394 20.9266 7.29122C21.1482 7.50851 21.2727 7.80322 21.2727 8.11051C21.2727 8.4178 21.1482 8.71251 20.9266 8.92979C20.7049 9.14708 20.4043 9.26915 20.0909 9.26915H5.90909C5.59565 9.26915 5.29505 9.14708 5.07342 8.92979C4.85179 8.71251 4.72727 8.4178 4.72727 8.11051ZM17.7273 4.63458C17.7273 4.32728 17.8518 4.03258 18.0734 3.81529C18.2951 3.598 18.5957 3.47593 18.9091 3.47593H20.0909C20.4043 3.47593 20.7049 3.598 20.9266 3.81529C21.1482 4.03258 21.2727 4.32728 21.2727 4.63458C21.2727 4.94187 21.1482 5.23657 20.9266 5.45386C20.7049 5.67115 20.4043 5.79322 20.0909 5.79322H18.9091C18.5957 5.79322 18.2951 5.67115 18.0734 5.45386C17.8518 5.23657 17.7273 4.94187 17.7273 4.63458ZM10.3917 20.0364L11.9198 18.5383L11.5735 18.1988C11.352 17.9815 11.2275 17.6869 11.2275 17.3797C11.2275 17.0724 11.352 16.7778 11.5735 16.5605L13.9372 14.2432C14.1601 14.0322 14.4586 13.9154 14.7685 13.918C15.0783 13.9207 15.3748 14.0425 15.5939 14.2573C15.813 14.4721 15.9373 14.7628 15.94 15.0665C15.9427 15.3703 15.8235 15.663 15.6083 15.8815L14.0802 17.3797L14.4265 17.7191C14.648 17.9364 14.7725 18.2311 14.7725 18.5383C14.7725 18.8455 14.648 19.1402 14.4265 19.3575L12.0628 21.6748C11.8399 21.8858 11.5414 22.0026 11.2315 22C10.9217 21.9973 10.6252 21.8755 10.4061 21.6606C10.187 21.4458 10.0627 21.1552 10.06 20.8514C10.0573 20.5476 10.1764 20.255 10.3917 20.0364ZM16.8917 20.0364L18.4198 18.5383L18.0735 18.1988C17.852 17.9815 17.7275 17.6869 17.7275 17.3797C17.7275 17.0724 17.852 16.7778 18.0735 16.5605L20.4372 14.2432C20.6601 14.0322 20.9586 13.9154 21.2685 13.918C21.5783 13.9207 21.8748 14.0425 22.0939 14.2573C22.313 14.4721 22.4373 14.7628 22.44 15.0665C22.4427 15.3703 22.3236 15.663 22.1083 15.8815L20.5802 17.3797L20.9265 17.7191C21.148 17.9364 21.2725 18.2311 21.2725 18.5383C21.2725 18.8455 21.148 19.1402 20.9265 19.3575L18.5628 21.6748C18.3399 21.8858 18.0414 22.0026 17.7315 22C17.4217 21.9973 17.1252 21.8755 16.9061 21.6606C16.687 21.4458 16.5627 21.1552 16.56 20.8514C16.5573 20.5476 16.6764 20.255 16.8917 20.0364ZM3.89173 20.0364L5.41982 18.5383L5.07355 18.1988C4.85199 17.9815 4.72752 17.6869 4.72752 17.3797C4.72752 17.0724 4.85199 16.7778 5.07355 16.5605L7.43718 14.2432C7.66008 14.0322 7.9586 13.9154 8.26847 13.918C8.57834 13.9207 8.87476 14.0425 9.09388 14.2573C9.31299 14.4721 9.43729 14.7628 9.43998 15.0665C9.44267 15.3703 9.32355 15.663 9.10827 15.8815L7.58018 17.3797L7.92645 17.7191C8.14801 17.9364 8.27247 18.2311 8.27247 18.5383C8.27247 18.8455 8.14801 19.1402 7.92645 19.3575L5.56282 21.6748C5.33992 21.8858 5.04139 22.0026 4.73153 22C4.42166 21.9973 4.12524 21.8755 3.90612 21.6606C3.687 21.4458 3.56271 21.1552 3.56002 20.8514C3.55733 20.5476 3.67645 20.255 3.89173 20.0364Z" fill="black"/>
</svg>
