<svg width="31" height="20" viewBox="0 0 31 20" fill="none" xmlns="http://www.w3.org/2000/svg">
<path d="M23.25 19.4053C24.8551 19.4053 26.1562 18.1041 26.1562 16.499C26.1562 14.8939 24.8551 13.5928 23.25 13.5928C21.6449 13.5928 20.3438 14.8939 20.3438 16.499C20.3438 18.1041 21.6449 19.4053 23.25 19.4053Z" fill="black"/>
<path d="M27.3188 7.78026H24.2188C23.0562 2.54901 18.0188 -0.938494 12.7875 0.224006C8.9125 0.999006 5.8125 3.90526 5.0375 7.78026H3.68125C1.74375 7.78026 0 9.52401 0 11.4615V13.9803C0 15.3365 1.1625 16.499 2.51875 16.499H3.1C3.1 13.9803 5.23125 11.849 7.75 11.849C10.2688 11.849 12.4 13.9803 12.4 16.499H18.6C18.6 13.9803 20.7313 11.849 23.25 11.849C25.7687 11.849 27.9 13.9803 27.9 16.499H28.4813C29.8375 16.499 31 15.3365 31 13.9803V11.6553C31 9.52401 29.2563 7.78026 27.3188 7.78026ZM8.1375 7.78026C9.10625 4.09901 12.9812 2.16151 16.4688 3.13026C18.6 3.71151 20.3438 5.45526 21.1187 7.78026H8.1375ZM7.75 13.5928C6.2 13.5928 4.84375 14.949 4.84375 16.499C4.84375 18.049 6.2 19.4053 7.75 19.4053C9.3 19.4053 10.6562 18.049 10.6562 16.499C10.6562 14.949 9.3 13.5928 7.75 13.5928Z" fill="black"/>
</svg>
