<svg width="18" height="22" viewBox="0 0 18 22" fill="none" xmlns="http://www.w3.org/2000/svg">
<path d="M17.5222 0.557612C17.1815 0.198081 16.7117 0 16.1993 0H14.7908C13.7528 0 12.7622 0.818882 12.5827 1.8255L12.4939 2.32331C12.4046 2.82423 12.5248 3.2987 12.8324 3.65933C13.14 4.01996 13.5938 4.21849 14.1103 4.21849H15.9297C16.1821 4.21849 16.4263 4.16886 16.6531 4.08076L16.4598 5.70726C16.2737 5.63025 16.0693 5.58922 15.8546 5.58922H13.7788C12.8895 5.58922 12.016 6.28603 11.8315 7.14246L9.99623 15.6616L1.33709 15.0489C0.869159 15.016 0.478517 15.1721 0.236319 15.4787C0.00946718 15.7659 -0.0568489 16.1512 0.0494616 16.5636L1.0562 20.4665C1.27431 21.312 2.17269 22 3.05871 22H10.318H10.4288H14.124C15.0218 22 15.8295 21.2847 15.9241 20.4056L17.3446 7.22021C17.3527 7.14484 17.3536 7.07057 17.351 6.99703L17.8372 2.9083C17.9058 2.7322 17.9494 2.54502 17.9631 2.35087L17.9953 1.89574C18.031 1.39243 17.8629 0.917235 17.5222 0.557612Z" fill="black"/>
</svg>
