<svg width="22" height="22" viewBox="0 0 22 22" fill="none" xmlns="http://www.w3.org/2000/svg">
<path d="M11.0001 0.166748C8.85746 0.166748 6.76294 0.802112 4.98141 1.99249C3.19988 3.18288 1.81134 4.87481 0.991391 6.85434C0.171442 8.83388 -0.0430942 11.0121 0.374912 13.1136C0.792919 15.215 1.82469 17.1453 3.33976 18.6604C4.85483 20.1755 6.78515 21.2073 8.88661 21.6253C10.9881 22.0433 13.1663 21.8287 15.1458 21.0088C17.1254 20.1888 18.8173 18.8003 20.0077 17.0188C21.1981 15.2372 21.8334 13.1427 21.8334 11.0001C21.8334 9.57743 21.5532 8.1687 21.0088 6.85434C20.4644 5.53998 19.6664 4.34573 18.6604 3.33976C17.6544 2.33379 16.4602 1.53581 15.1458 0.991387C13.8315 0.446961 12.4227 0.166748 11.0001 0.166748ZM11.0001 2.33341C12.7099 2.33413 14.3812 2.84056 15.8039 3.78898C17.2265 4.7374 18.3368 6.08542 18.9951 7.66341C16.3819 7.00009 13.6962 6.66529 11.0001 6.66675C8.29564 6.66712 5.60207 7.00928 2.98342 7.68508C3.63977 6.09963 4.75198 4.7447 6.17914 3.79197C7.60629 2.83925 9.28415 2.33162 11.0001 2.33341ZM2.33342 11.7259L3.53592 11.5851C4.2011 11.5071 4.87524 11.5708 5.51403 11.772C6.15282 11.9732 6.74178 12.3074 7.24217 12.7525C7.74257 13.1977 8.14306 13.7437 8.41732 14.3547C8.69158 14.9657 8.83339 15.6278 8.83342 16.2976V19.3851C7.0887 18.9416 5.52537 17.9658 4.36055 16.5933C3.19572 15.2207 2.48721 13.5195 2.33342 11.7259ZM13.1668 19.3851V16.2976C13.1673 15.6309 13.3083 14.9719 13.5806 14.3633C13.8529 13.7548 14.2504 13.2105 14.7472 12.7659C15.2439 12.3213 15.8288 11.9863 16.4636 11.7829C17.0985 11.5794 17.7691 11.512 18.4318 11.5851L19.6343 11.7259C19.4826 13.5153 18.7788 15.2134 17.6202 16.5855C16.4616 17.9575 14.9054 18.9358 13.1668 19.3851Z" fill="black"/>
</svg>
