<svg width="99" height="82" viewBox="0 0 99 82" fill="none" xmlns="http://www.w3.org/2000/svg">
<path d="M13.86 0C13.3333 0 12.8303 0.220703 12.4601 0.615986L6.52008 6.92368C6.02904 7.44722 5.82773 8.2025 5.99801 8.91947L7.97801 17.3297C8.19977 18.2633 8.99118 18.9231 9.9 18.9231H19.8V23.1282H17.0234C13.2849 23.1282 9.85779 25.3757 8.1791 28.9226L8.24098 28.7994L1.4618 41.0329C0.505914 42.6869 0 44.5883 0 46.5274V65.8283C0 68.9297 2.4084 71.4872 5.32898 71.4872H8.10176C9.05279 77.4337 13.9389 82 19.8 82C25.6611 82 30.5472 77.4337 31.4982 71.4872H67.5018C68.4528 77.4337 73.3389 82 79.2 82C85.0611 82 89.9472 77.4337 90.8982 71.4872H93.06C96.318 71.4872 99 68.6392 99 65.1795V55.4839C99 50.3595 95.4869 45.9588 90.7281 45.1148L74.2384 42.195L60.4557 26.8652C58.5755 24.4955 55.8043 23.1282 52.8877 23.1282H51.48V18.9231H61.38C62.1304 18.9231 62.8166 18.4737 63.1512 17.7609L67.1112 9.35066C67.3765 8.78717 67.3875 8.12809 67.146 7.55198C66.9044 6.97588 66.4343 6.54771 65.8621 6.38161L44.0821 0.0739183C43.9138 0.0255593 43.7362 0 43.56 0H13.86ZM23.76 18.9231H47.52V23.1282H23.76V18.9231ZM17.0234 27.3333H33.66V42.0513H5.49141L11.6866 30.8732L11.7176 30.8075C12.7277 28.6732 14.7743 27.3333 17.0234 27.3333ZM37.62 27.3333H52.8877C54.6399 27.3333 56.2984 28.1522 57.4277 29.5755L57.4664 29.6248L68.631 42.0513H37.62V27.3333ZM19.8 60.9744C24.1963 60.9744 27.72 64.7161 27.72 69.3846C27.72 74.0531 24.1963 77.7949 19.8 77.7949C15.4037 77.7949 11.88 74.0531 11.88 69.3846C11.88 64.7161 15.4037 60.9744 19.8 60.9744ZM79.2 60.9744C83.5963 60.9744 87.12 64.7161 87.12 69.3846C87.12 74.0531 83.5963 77.7949 79.2 77.7949C74.8037 77.7949 71.28 74.0531 71.28 69.3846C71.28 64.7161 74.8037 60.9744 79.2 60.9744Z" fill="#C05F31"/>
</svg>
