<svg width="100" height="100" viewBox="0 0 100 100" fill="none" xmlns="http://www.w3.org/2000/svg">
<circle cx="50" cy="50" r="49" stroke="#C05F31" stroke-width="2"/>
<path d="M31.1 28C29.659 28 29.648 30.222 31.1 30.2H79.5C80.1292 30.2 80.6 30.6708 80.6 31.3V59.9C80.6 61.352 82.8 61.352 82.8 59.9V31.3C82.8 29.4916 81.3084 28 79.5 28H31.1ZM26.7 32.4C25.2612 32.4 25.2612 34.6 26.7 34.6H75.1C75.7292 34.6 76.2 35.0708 76.2 35.7V64.3C76.2 65.763 78.422 65.752 78.4 64.3V35.7C78.4 33.8916 76.9084 32.4 75.1 32.4H26.7ZM22.3 36.8C20.4916 36.8 19 38.2916 19 40.1V66.5C19 68.3084 20.4916 69.8 22.3 69.8H70.7C72.5084 69.8 74 68.3084 74 66.5V40.1C74 38.2916 72.5084 36.8 70.7 36.8H22.3ZM22.3 39H70.7C71.3292 39 71.8 39.4708 71.8 40.1V66.5C71.8 67.1292 71.3292 67.6 70.7 67.6H22.3C21.6708 67.6 21.2 67.1292 21.2 66.5V40.1C21.2 39.4708 21.6708 39 22.3 39ZM24.5 41.2C23.8928 41.2 23.4 41.6928 23.4 42.3V46.7C23.4 48.1784 25.6 48.1432 25.6 46.7V43.4H28.9C30.3784 43.4 30.3432 41.2 28.9 41.2H24.5ZM46.5 41.2C39.8296 41.2 34.4 46.6296 34.4 53.3C34.4 59.9704 39.8296 65.4 46.5 65.4C53.1704 65.4 58.6 59.9704 58.6 53.3C58.6 46.6296 53.1704 41.2 46.5 41.2ZM64.1 41.2C62.6568 41.2 62.6216 43.4 64.1 43.4H67.4V46.7C67.4 48.1432 69.6 48.1784 69.6 46.7V42.3C69.6 41.6928 69.1072 41.2 68.5 41.2H64.1ZM46.5 43.4C51.978 43.4 56.4 47.822 56.4 53.3C56.4 58.778 51.978 63.2 46.5 63.2C41.022 63.2 36.6 58.778 36.6 53.3C36.6 47.822 41.022 43.4 46.5 43.4ZM46.5 45.6C45.8906 45.6 45.4 46.0906 45.4 46.7V48.0068C44.1284 48.4688 43.2 49.6788 43.2 51.1C43.2 52.904 44.696 54.4 46.5 54.4C47.116 54.4 47.6 54.8664 47.6 55.5C47.6 56.1336 47.116 56.6 46.5 56.6H44.3C43.5564 56.589 43.2 57.1456 43.2 57.7C43.2 58.2544 43.5564 58.811 44.3 58.8H45.4V59.9C45.4 60.5094 45.8906 61 46.5 61C47.1094 61 47.6 60.5094 47.6 59.9V58.5932C48.8716 58.1312 49.8 56.9212 49.8 55.5C49.8 53.696 48.304 52.2 46.5 52.2C45.884 52.2 45.4 51.7336 45.4 51.1C45.4 50.4664 45.884 50 46.5 50H48.7C49.4436 50.011 49.8 49.4544 49.8 48.9C49.8 48.3456 49.4436 47.789 48.7 47.8H47.6V46.7C47.6 46.0906 47.1094 45.6 46.5 45.6ZM24.5 58.8044C23.95 58.8 23.4 59.1608 23.4 59.9V64.3C23.4 64.9072 23.8928 65.4 24.5 65.4H28.9C30.3432 65.4 30.3784 63.2 28.9 63.2H25.6V59.9C25.6 59.1784 25.05 58.8088 24.5 58.8044ZM68.5 58.8044C67.95 58.8088 67.4 59.1784 67.4 59.9V63.2H64.1C62.6216 63.2 62.6568 65.4 64.1 65.4H68.5C69.1072 65.4 69.6 64.9072 69.6 64.3V59.9C69.6 59.1608 69.05 58.8 68.5 58.8044Z" fill="#C05F31"/>
<line x1="15.3032" y1="84.2827" x2="85.3032" y2="16.2827" stroke="#C05F31" stroke-width="2"/>
</svg>
