<svg width="93" height="61" viewBox="0 0 93 61" fill="none" xmlns="http://www.w3.org/2000/svg">
<path d="M17.6 0C15.504 0 15.488 3.232 17.6 3.2H88C88.9152 3.2 89.6 3.8848 89.6 4.8V46.4C89.6 48.512 92.8 48.512 92.8 46.4V4.8C92.8 2.1696 90.6304 0 88 0H17.6ZM11.2 6.4C9.1072 6.4 9.1072 9.6 11.2 9.6H81.6C82.5152 9.6 83.2 10.2848 83.2 11.2V52.8C83.2 54.928 86.432 54.912 86.4 52.8V11.2C86.4 8.5696 84.2304 6.4 81.6 6.4H11.2ZM4.8 12.8C2.1696 12.8 0 14.9696 0 17.6V56C0 58.6304 2.1696 60.8 4.8 60.8H75.2C77.8304 60.8 80 58.6304 80 56V17.6C80 14.9696 77.8304 12.8 75.2 12.8H4.8ZM4.8 16H75.2C76.1152 16 76.8 16.6848 76.8 17.6V56C76.8 56.9152 76.1152 57.6 75.2 57.6H4.8C3.8848 57.6 3.2 56.9152 3.2 56V17.6C3.2 16.6848 3.8848 16 4.8 16ZM8 19.2C7.1168 19.2 6.4 19.9168 6.4 20.8V27.2C6.4 29.3504 9.6 29.2992 9.6 27.2V22.4H14.4C16.5504 22.4 16.4992 19.2 14.4 19.2H8ZM40 19.2C30.2976 19.2 22.4 27.0976 22.4 36.8C22.4 46.5024 30.2976 54.4 40 54.4C49.7024 54.4 57.6 46.5024 57.6 36.8C57.6 27.0976 49.7024 19.2 40 19.2ZM65.6 19.2C63.5008 19.2 63.4496 22.4 65.6 22.4H70.4V27.2C70.4 29.2992 73.6 29.3504 73.6 27.2V20.8C73.6 19.9168 72.8832 19.2 72 19.2H65.6ZM40 22.4C47.968 22.4 54.4 28.832 54.4 36.8C54.4 44.768 47.968 51.2 40 51.2C32.032 51.2 25.6 44.768 25.6 36.8C25.6 28.832 32.032 22.4 40 22.4ZM40 25.6C39.1136 25.6 38.4 26.3136 38.4 27.2V29.1008C36.5504 29.7728 35.2 31.5328 35.2 33.6C35.2 36.224 37.376 38.4 40 38.4C40.896 38.4 41.6 39.0784 41.6 40C41.6 40.9216 40.896 41.6 40 41.6H36.8C35.7184 41.584 35.2 42.3936 35.2 43.2C35.2 44.0064 35.7184 44.816 36.8 44.8H38.4V46.4C38.4 47.2864 39.1136 48 40 48C40.8864 48 41.6 47.2864 41.6 46.4V44.4992C43.4496 43.8272 44.8 42.0672 44.8 40C44.8 37.376 42.624 35.2 40 35.2C39.104 35.2 38.4 34.5216 38.4 33.6C38.4 32.6784 39.104 32 40 32H43.2C44.2816 32.016 44.8 31.2064 44.8 30.4C44.8 29.5936 44.2816 28.784 43.2 28.8H41.6V27.2C41.6 26.3136 40.8864 25.6 40 25.6ZM8 44.8064C7.2 44.8 6.4 45.3248 6.4 46.4V52.8C6.4 53.6832 7.1168 54.4 8 54.4H14.4C16.4992 54.4 16.5504 51.2 14.4 51.2H9.6V46.4C9.6 45.3504 8.8 44.8128 8 44.8064ZM72 44.8064C71.2 44.8128 70.4 45.3504 70.4 46.4V51.2H65.6C63.4496 51.2 63.5008 54.4 65.6 54.4H72C72.8832 54.4 73.6 53.6832 73.6 52.8V46.4C73.6 45.3248 72.8 44.8 72 44.8064Z" fill="#C05F31"/>
</svg>
