<svg width="112" height="113" viewBox="0 0 112 113" fill="none" xmlns="http://www.w3.org/2000/svg">
<path d="M106.75 40.3591L101.5 42.1138L98 49.1328L89.4955 20.7074C88.3111 16.7488 84.6776 14.038 80.5555 14.038H31.4443C27.3226 14.038 23.6889 16.7489 22.5046 20.7074L14 49.1328L10.5 42.1138L5.25 40.3591" stroke="#C05F31" stroke-width="3.75" stroke-linecap="round" stroke-linejoin="round"/>
<path d="M7 91.0969V98.2656C7 100.127 7.73752 101.913 9.05025 103.229C10.363 104.545 12.1435 105.285 14 105.285C15.8565 105.285 17.637 104.545 18.9497 103.229C20.2625 101.913 21 100.127 21 98.2656V91.504" stroke="#C05F31" stroke-width="3.75" stroke-linecap="round" stroke-linejoin="round"/>
<path d="M105 91.0969V98.2656C105 100.127 104.263 101.913 102.95 103.229C101.637 104.545 99.8564 105.285 98 105.285C96.1436 105.285 94.3628 104.545 93.0501 103.229C91.7373 101.913 91 100.127 91 98.2656V91.605" stroke="#C05F31" stroke-width="3.75" stroke-linecap="round" stroke-linejoin="round"/>
<path d="M12.8333 49.1328H56H99.1667C101.642 49.1328 104.016 50.2086 105.766 52.1229C107.517 54.0377 108.5 56.6347 108.5 59.3421V86.142C108.5 87.4957 108.008 88.7942 107.133 89.7516C106.258 90.709 105.071 91.2466 103.833 91.2466H8.16667C6.92897 91.2466 5.74201 90.709 4.86682 89.7516C3.99167 88.7942 3.5 87.4957 3.5 86.142V59.3421C3.5 56.6347 4.48333 54.0377 6.23369 52.1229C7.98401 50.2086 10.358 49.1328 12.8333 49.1328Z" stroke="#C05F31" stroke-width="3.75" stroke-linecap="round" stroke-linejoin="round"/>
<path d="M3.5 66.6802H23.3333L28.5833 77.2087" stroke="#C05F31" stroke-width="3.75" stroke-linecap="round" stroke-linejoin="round"/>
<path d="M66.5 77.2087H45.5" stroke="#C05F31" stroke-width="3.75" stroke-linecap="round" stroke-linejoin="round"/>
<path d="M108.5 66.6802H88.6667L83.4167 77.2087" stroke="#C05F31" stroke-width="3.75" stroke-linecap="round" stroke-linejoin="round"/>
</svg>