<svg width="112" height="113" viewBox="0 0 112 113" fill="none" xmlns="http://www.w3.org/2000/svg">
<path d="M23.3333 37.4347L14 59.6612" stroke="#C05F31" stroke-width="3.75" stroke-linecap="round" stroke-linejoin="round"/>
<path d="M7 91.0969V98.2656C7 100.127 7.73752 101.913 9.05025 103.229C10.363 104.545 12.1435 105.285 14 105.285C15.8565 105.285 17.637 104.545 18.9497 103.229C20.2625 101.913 21 100.127 21 98.2656V91.9115" stroke="#C05F31" stroke-width="3.75" stroke-linecap="round" stroke-linejoin="round"/>
<path d="M105 91.0969V98.2656C105 100.127 104.263 101.913 102.95 103.229C101.637 104.545 99.8564 105.285 98 105.285C96.1436 105.285 94.3628 104.545 93.0501 103.229C91.7373 101.913 91 100.127 91 98.2656V91.5835" stroke="#C05F31" stroke-width="3.75" stroke-linecap="round" stroke-linejoin="round"/>
<path d="M12.8333 59.6613H99.1667C101.642 59.6613 104.016 60.6472 105.766 62.4024C107.517 64.1576 108.5 66.538 108.5 69.0199V86.5673C108.5 87.8083 108.008 88.9987 107.133 89.876C106.258 90.7534 105.071 91.2466 103.833 91.2466H8.16667C6.92897 91.2466 5.74201 90.7534 4.86682 89.876C3.99167 88.9987 3.5 87.8083 3.5 86.5673V69.0199C3.5 66.538 4.48333 64.1576 6.23369 62.4024C7.98401 60.6472 10.358 59.6613 12.8333 59.6613Z" stroke="#C05F31" stroke-width="3.75" stroke-linecap="round" stroke-linejoin="round"/>
<path d="M58.3333 19.8871C58.3333 25.7018 63.0345 30.4156 68.8333 30.4156C74.6321 30.4156 79.3333 25.7018 79.3333 19.8871C79.3333 14.0724 74.6321 9.35864 68.8333 9.35864C63.0345 9.35864 58.3333 14.0724 58.3333 19.8871Z" stroke="#C05F31" stroke-width="3.75" stroke-linecap="round" stroke-linejoin="round"/>
<path d="M58.3333 19.8865H32.6667V26.8023" stroke="#C05F31" stroke-width="3.75" stroke-linecap="round" stroke-linejoin="round"/>
<path d="M66.5 77.2087H45.5" stroke="#C05F31" stroke-width="3.75" stroke-linecap="round" stroke-linejoin="round"/>
<path d="M108.5 75.4539H94.5" stroke="#C05F31" stroke-width="3.75" stroke-linecap="round" stroke-linejoin="round"/>
<path d="M3.5 75.4539H17.5014" stroke="#C05F31" stroke-width="3.75" stroke-linecap="round" stroke-linejoin="round"/>
<path d="M43.1667 19.8865V27.4045" stroke="#C05F31" stroke-width="3.75" stroke-linecap="round" stroke-linejoin="round"/>
<path d="M98 59.6612L88.6667 37.4347" stroke="#C05F31" stroke-width="3.75" stroke-linecap="round" stroke-linejoin="round"/>
</svg>