<svg width="72" height="107" viewBox="0 0 72 107" fill="none" xmlns="http://www.w3.org/2000/svg">
<path d="M67.137 80.8862L49.2286 73.4246C48.4313 73.0925 47.9164 72.3199 47.9164 71.456V67.6574L51.2648 65.7973C54.1336 64.2033 56.0237 61.3005 56.3207 58.0322L56.3281 57.9512H58.0765C61.3273 57.9512 63.972 55.3064 63.972 52.0557V48.4317C64.4992 47.1571 65.9789 43.0776 65.9789 37.4495C65.9789 29.6734 62.9328 22.3364 57.4019 16.7898C55.2857 14.6678 52.892 12.9039 50.2953 11.5282C50.2048 5.15911 43.8286 0 36.0002 0C28.1719 0 21.7957 5.15911 21.705 11.5282C19.1082 12.9037 16.7145 14.6675 14.5983 16.7898C9.06739 22.3364 6.02131 29.6731 6.02131 37.4495C6.02131 43.0776 7.50108 47.1569 8.02818 48.4317V52.0557C8.02818 55.3064 10.6729 57.9512 13.9237 57.9512H15.6721L15.6793 58.0322C15.9763 61.3005 17.8666 64.2035 20.7354 65.7973L24.0839 67.6574V71.456C24.0839 72.3196 23.5687 73.0923 22.7716 73.4246L4.86325 80.8862C1.90879 82.1172 0 84.9805 0 88.1807V100.222C0 103.473 2.64475 106.118 5.89553 106.118H66.1045C69.3552 106.118 72 103.473 72 100.222V88.1807C71.9998 84.9805 70.091 82.1172 67.137 80.8862ZM60.2089 52.0554C60.2089 53.2313 59.2523 54.1879 58.0765 54.1879H56.6704L57.4229 45.909H58.0765C59.2523 45.909 60.2089 46.8656 60.2089 48.0415V52.0554ZM36 3.76312C40.9283 3.76312 45.0755 6.31417 46.2213 9.74796C42.9982 8.6176 39.5529 8.02795 36 8.02795C32.4471 8.02795 29.002 8.6176 25.7787 9.74796C26.9243 6.31417 31.0714 3.76312 36 3.76312ZM13.9233 54.1879C12.7474 54.1879 11.7908 53.2313 11.7908 52.0554V48.0415C11.7908 46.8656 12.7474 45.909 13.9233 45.909H14.5768L15.3294 54.1879H13.9233ZM22.563 62.5077C20.7834 61.5191 19.6109 59.7185 19.4267 57.6913L17.9942 41.9352C20.4553 41.9198 24.7707 41.7102 29.8171 40.6645C40.1377 38.5264 48.5575 33.8613 54.1662 27.1742C54.834 26.3783 54.73 25.1914 53.9335 24.5237C53.1373 23.8558 51.9507 23.9599 51.2828 24.7563C39.0422 39.3509 16.3594 38.1553 16.0492 38.1363V38.1384C15.9541 38.1326 15.8579 38.1315 15.76 38.1405C14.7252 38.2347 13.9625 39.1497 14.0566 40.1845L14.2348 42.1464H13.9233C12.606 42.1464 11.3881 42.581 10.4055 43.3137C10.0644 41.7296 9.78373 39.7347 9.78373 37.4495C9.78373 30.6766 12.4398 24.2835 17.2624 19.447C22.1857 14.5099 28.84 11.7908 35.9998 11.7908C43.1595 11.7908 49.8136 14.5097 54.7371 19.447C59.5597 24.283 62.2158 30.6766 62.2158 37.4495C62.2158 39.7345 61.9354 41.7298 61.5941 43.3139C60.6114 42.581 59.3938 42.1464 58.0763 42.1464H57.7647L57.9431 40.1843C57.9939 39.6283 57.7945 39.0784 57.3996 38.6835L53.3857 34.6695C52.6509 33.9347 51.4596 33.9347 50.725 34.6695C49.9902 35.4044 49.9902 36.5954 50.725 37.3302L54.1159 40.7211L52.7762 55.4576C51.2396 56.8167 46.3662 60.2089 35.9998 60.2089C34.9606 60.2089 34.1182 61.0513 34.1182 62.0905C34.1182 63.1297 34.9606 63.972 35.9998 63.972C43.2034 63.972 48.1329 62.4637 51.3301 60.8715C50.8249 61.5313 50.1854 62.0921 49.437 62.508L38.9847 68.3149C37.1156 69.3532 34.8839 69.3532 33.0151 68.3149L22.563 62.5077ZM24.2189 76.8979C26.4228 75.9796 27.8467 73.8435 27.8467 71.456V69.7478L31.1875 71.604C32.6943 72.4408 34.3469 72.8597 36 72.8597C37.6531 72.8597 39.3057 72.4413 40.8125 71.604L44.1533 69.7478V71.456C44.1533 73.8439 45.5772 75.9798 47.7811 76.8979L49.7548 77.7201C46.2252 81.8179 42.814 83.8538 40.5037 84.8494C37.9483 85.9505 36.1789 86.041 35.9998 86.0476C35.8207 86.0412 34.0513 85.9505 31.4958 84.8494C29.1855 83.8541 25.7746 81.8179 22.2448 77.7201L24.2189 76.8979ZM12.0417 102.355H5.89553C4.7197 102.355 3.76312 101.399 3.76312 100.223V88.181C3.76312 87.6622 3.85935 87.1605 4.03751 86.6957L10.4883 91.8566C11.4758 92.6464 12.0417 93.8245 12.0417 95.089V102.355ZM56.195 95.0885V102.355H15.8048V95.0885C15.8048 92.6745 14.7238 90.4256 12.839 88.9176L6.85697 84.1319L18.609 79.2352C24.809 86.9036 31.0758 89.0134 34.1182 89.5924V95.9578C34.1182 96.997 34.9606 97.8394 35.9998 97.8394C37.039 97.8394 37.8813 96.997 37.8813 95.9578V89.5924C40.9239 89.0134 47.1906 86.9036 53.3905 79.2352L65.1426 84.1319L59.1605 88.9176C57.2759 90.4256 56.195 92.6747 56.195 95.0885ZM68.2367 100.223C68.2367 101.399 67.2801 102.355 66.1042 102.355H59.9578V95.0887C59.9578 93.8243 60.524 92.6464 61.5112 91.8562L67.962 86.6954C68.1402 87.1602 68.2364 87.662 68.2364 88.1807V100.223H68.2367Z" fill="#C05F31"/>
<path d="M33.6811 47.2251C32.782 45.3593 30.6135 44.1532 28.1564 44.1532C25.6993 44.1532 23.5309 45.359 22.6318 47.2251C22.1808 48.1612 22.5741 49.2858 23.5103 49.7369C24.4464 50.1881 25.571 49.7944 26.0222 48.8584C26.2421 48.4019 27.0651 47.9163 28.1566 47.9163C29.2482 47.9163 30.071 48.4016 30.2911 48.8584C30.6152 49.5316 31.2877 49.9239 31.9876 49.9239C32.2616 49.9239 32.5399 49.8636 32.803 49.7369C33.7388 49.2858 34.132 48.1614 33.6811 47.2251Z" fill="#C05F31"/>
<path d="M49.3681 47.2251C48.4692 45.3593 46.3007 44.1532 43.8434 44.1532C41.386 44.1532 39.2178 45.359 38.3187 47.2251C37.8675 48.1614 38.261 49.2858 39.1973 49.7369C40.1333 50.1881 41.2579 49.7944 41.7091 48.8584C41.9291 48.4019 42.752 47.9163 43.8436 47.9163C44.9352 47.9163 45.7579 48.4016 45.9781 48.8584C46.3021 49.5316 46.9746 49.9239 47.6746 49.9239C47.9485 49.9239 48.2268 49.8636 48.4899 49.7369C49.4257 49.2858 49.8192 48.1614 49.3681 47.2251Z" fill="#C05F31"/>
</svg>